<?xml version="1.0" encoding="UTF-8"?>
<svg id="Layer_1" xmlns="http://www.w3.org/2000/svg" xmlns:xlink="http://www.w3.org/1999/xlink" version="1.1" viewBox="0 0 982.53 130.64">
  <!-- Generator: Adobe Illustrator 30.5.1, SVG Export Plug-In . SVG Version: 2.1.4 Build 3)  -->
  <defs>
    <style>
      .st0 {
        fill: url(#linear-gradient);
        stroke: #fff;
        stroke-width: 2px;
      }

      .st0, .st1 {
        stroke-miterlimit: 10;
      }

      .st2 {
        fill: url(#radial-gradient);
      }

      .st3 {
        fill: url(#radial-gradient1);
      }

      .st1 {
        stroke: #666667;
      }

      .st4 {
        fill: #f2a900;
      }

      .st5 {
        fill: #fdfdfd;
      }
    </style>
    <linearGradient id="linear-gradient" x1="113.91" y1="138.24" x2="29.71" y2="-7.6" gradientTransform="translate(6.49 137.13) rotate(-90)" gradientUnits="userSpaceOnUse">
      <stop offset="0" stop-color="#285871" stop-opacity=".8"/>
      <stop offset=".13" stop-color="#1f4f68" stop-opacity=".84"/>
      <stop offset=".55" stop-color="#083851" stop-opacity=".96"/>
      <stop offset=".85" stop-color="#003049"/>
    </linearGradient>
    <radialGradient id="radial-gradient" cx="42.91" cy="43.91" fx="42.91" fy="43.91" r="42.91" gradientUnits="userSpaceOnUse">
      <stop offset="0" stop-color="#f0a91e"/>
      <stop offset="1" stop-color="#fff" stop-opacity="0"/>
    </radialGradient>
    <radialGradient id="radial-gradient1" cx="45.03" cy="43.22" fx="45.03" fy="43.22" r="28.52" gradientUnits="userSpaceOnUse">
      <stop offset="0" stop-color="#fff"/>
      <stop offset="1" stop-color="#fff" stop-opacity="0"/>
    </radialGradient>
  </defs>
  <rect class="st0" x="7.49" y="1" width="128.64" height="128.64" rx="10" ry="10" transform="translate(137.13 -6.49) rotate(90)"/>
  <circle class="st1" cx="71.01" cy="65.77" r="37.52"/>
  <circle class="st2" cx="42.91" cy="43.91" r="42.91"/>
  <circle class="st3" cx="45.03" cy="43.22" r="28.52"/>
  <g>
    <path class="st5" d="M176.68,104.17l31.48-84.45h24.17l31.84,84.45h-20.7l-14.37-40.92c-1.79-5.33-3.58-10.98-5.39-16.95-1.81-5.97-3.77-12.62-5.87-19.95h4.69c-2.07,7.33-4,13.99-5.78,19.98-1.79,5.99-3.55,11.63-5.3,16.92l-14.43,40.92h-20.34ZM196.53,85.24v-13.77h47.86v13.77h-47.86Z"/>
    <path class="st5" d="M293.6,19.72v84.45h-16.83V19.72h16.83ZM305.64,104.17h-21.23v-14.79h20.35c5.43,0,9.93-1.02,13.5-3.06,3.57-2.04,6.25-5.1,8.03-9.18,1.78-4.08,2.67-9.16,2.67-15.24s-.89-11.16-2.67-15.22c-1.78-4.06-4.45-7.1-8-9.13-3.56-2.02-8.01-3.03-13.37-3.03h-20.9v-14.79h21.89c8.25,0,15.35,1.7,21.31,5.1,5.96,3.4,10.55,8.26,13.78,14.56,3.23,6.31,4.84,13.81,4.84,22.5s-1.61,16.25-4.84,22.56c-3.23,6.31-7.84,11.18-13.83,14.6-6,3.42-13.17,5.13-21.53,5.13Z"/>
    <path class="st5" d="M378.13,19.72v84.45h-16.83V19.72h16.83Z"/>
    <path class="st5" d="M392.53,34.4v-14.68h66.77v14.68h-24.92v69.76h-16.89V34.4h-24.97Z"/>
    <path class="st5" d="M491.11,19.72v84.45h-16.83V19.72h16.83Z"/>
    <path class="st5" d="M540.1,104.17V19.72h9.68v77.42h50.26v7.03h-59.93Z"/>
    <path class="st5" d="M645.38,103.07c-5.15,2.29-10.51,2.24-14,2.24-3.8,0-7.26-.69-10.38-2.07-3.12-1.38-5.61-3.44-7.47-6.18-1.86-2.74-2.79-6.09-2.79-10.06,0-3.14.59-5.74,1.78-7.82,1.18-2.08,2.85-3.78,4.99-5.1,2.14-1.32,4.69-2.36,7.64-3.11,2.95-.76,6.2-1.36,9.73-1.82,3.61-.49,6.61-.9,9-1.25,2.39-.34,4.17-.87,5.36-1.59s1.78-1.87,1.78-3.46v-1.13c0-2.65-.6-4.96-1.8-6.94-1.21-1.98-2.92-3.53-5.16-4.65-2.24-1.11-4.9-1.67-7.98-1.67s-5.68.51-8.01,1.53c-2.33,1.02-4.22,2.39-5.67,4.11-1.45,1.72-2.38,3.62-2.79,5.7l-7.33-1.13c.71-3.51,2.19-6.53,4.43-9.04,2.24-2.51,5.03-4.44,8.38-5.78,3.35-1.34,6.98-2.01,10.89-2.01,2.97,0,5.8.41,8.49,1.22,2.69.81,5.08,2.05,7.16,3.71,2.09,1.66,3.74,3.76,4.96,6.29,1.22,2.53,1.83,5.52,1.83,8.96v42.16h-7.33v-9.86s3-.22-.06,4.25M632.39,98.56c3.91,0,7.25-.79,10.01-2.38,2.76-1.59,4.89-3.76,6.37-6.52,1.49-2.76,2.23-5.86,2.23-9.29v-8.67c-.53.49-1.35.94-2.48,1.33-1.13.4-2.45.75-3.98,1.05-1.52.3-3.14.59-4.85.85-1.71.27-3.38.49-4.99.68-3.42.45-6.37,1.13-8.83,2.04-2.46.91-4.35,2.14-5.67,3.69-1.32,1.55-1.97,3.55-1.97,6.01s.61,4.41,1.83,6.09c1.22,1.68,2.9,2.95,5.02,3.83,2.12.87,4.56,1.3,7.31,1.3Z"/>
    <path class="st5" d="M701.07,105.3c-3.31,0-8.29-.63-10.98-1.57-2.94-1.03-3.59-.82-5.71-2.45-2.38-1.83-2.49-2.13-3.54-4.44l-.03.28v6.98h-7.22V19.66h7.39v34.74h.34c.98-2.31,2.37-4.41,4.17-6.32,1.8-1.91,4.01-3.44,6.63-4.59,2.61-1.15,5.59-1.73,8.94-1.73,5.11,0,9.62,1.32,13.51,3.97,3.89,2.65,6.94,6.35,9.14,11.11,2.2,4.76,3.3,10.31,3.3,16.66s-1.09,11.85-3.27,16.63c-2.18,4.78-5.22,8.5-9.11,11.17-3.89,2.66-8.41,3.99-13.57,3.99ZM700.11,98.5c3.91,0,7.32-1.04,10.24-3.12,2.91-2.08,5.17-5,6.77-8.76,1.6-3.76,2.4-8.15,2.4-13.18s-.8-9.41-2.4-13.15c-1.6-3.74-3.85-6.64-6.74-8.7-2.9-2.06-6.32-3.09-10.27-3.09s-7.49,1.04-10.41,3.11c-2.91,2.08-5.15,4.99-6.71,8.73-1.56,3.74-2.34,8.11-2.34,13.09s.79,9.32,2.37,13.1c1.58,3.78,3.82,6.71,6.71,8.81,2.9,2.1,6.36,3.15,10.38,3.15Z"/>
    <path class="st5" d="M756.48,105.42c-4.11,0-7.76-.68-10.95-2.04-3.19-1.36-5.78-3.37-7.78-6.04s-3.22-5.94-3.66-9.83l7.04-.79c.59,3.93,2.18,6.94,4.79,9.01,2.6,2.08,6.09,3.12,10.45,3.12,4.58,0,8.23-1.06,10.94-3.18,2.71-2.11,4.07-4.78,4.07-7.99,0-2.57-.86-4.63-2.58-6.18s-4.2-2.7-7.43-3.46l-9.79-2.44c-5.24-1.29-9.2-3.28-11.88-5.98-2.68-2.7-4.01-6.17-4.01-10.4,0-3.44.9-6.47,2.69-9.1,1.8-2.63,4.28-4.68,7.45-6.18,3.17-1.5,6.81-2.24,10.92-2.24s7.36.7,10.31,2.1c2.95,1.4,5.34,3.38,7.15,5.95,1.82,2.57,2.98,5.65,3.49,9.24l-6.87.79c-.55-3.44-2-6.23-4.35-8.36-2.35-2.13-5.59-3.2-9.73-3.2s-7.44,1.01-9.98,3.03c-2.55,2.02-3.82,4.62-3.82,7.79,0,2.61.91,4.7,2.72,6.29,1.82,1.59,4.46,2.81,7.95,3.69l9.51,2.32c5.28,1.29,9.2,3.23,11.77,5.84,2.57,2.61,3.85,6.01,3.85,10.2,0,3.62-.95,6.79-2.83,9.49-1.89,2.7-4.51,4.8-7.86,6.29-3.36,1.49-7.22,2.24-11.58,2.24Z"/>
  </g>
  <g>
    <path class="st5" d="M867.01,103.85l31.1-83.44h23.88l31.46,83.44h-20.45l-14.2-40.43c-1.76-5.27-3.54-10.84-5.32-16.74-1.78-5.9-3.72-12.47-5.8-19.71h4.63c-2.04,7.24-3.95,13.82-5.71,19.74-1.77,5.92-3.51,11.49-5.23,16.72l-14.26,40.43h-20.09ZM886.63,85.15v-13.61h47.28v13.61h-47.28Z"/>
    <polyline class="st5" points="982.53 103.85 965.9 103.85 965.9 20.41 982.53 20.41"/>
  </g>
  <circle class="st4" cx="827.21" cy="63.43" r="11.73"/>
</svg>
